<svg width="295" height="400" xmlns="http://www.w3.org/2000/svg">
 <metadata id="metadata12">image/svg+xml</metadata>

 <g>
  <title>Layer 1</title>
  <path fill="#000000" fill-rule="evenodd" d="m206.798,360.9612l19.736,-0.0689l4.0631,15.1297l-27.78,0.0538l3.9809,-15.1146zm-86.5031,-0.0731c19.491,0 18.5847,-1.5891 19.9292,3.4897l3.0977,11.6224l-27.7818,0.064c0.4414,-2.5188 3.2292,-13.9671 4.7549,-15.1761zm-41.9809,-14.9712c1.3283,1.2623 14.5401,27.6449 15.0608,30.1428l-22.3447,0c-0.3985,-4.6378 -0.3946,-13.94 -0.1179,-18.5258c0.1525,-2.5257 6.4344,-10.7757 7.4018,-11.617zm-33.8862,-33.5613l17.6511,-0.0723l-0.004,63.7565l-17.4852,0.0329l-0.1622,-63.7171l0.0003,0zm172.0137,14.2143c1.4451,2.124 7.2709,23.6296 7.924,27.6542l-15.5384,-0.01l7.6144,-27.6446l0,0.0004zm-87.2657,0.3906c0.303,0.1735 0.4039,0.2174 0.4337,0.4139l1.9837,6.2163c1.5247,5.5313 4.8977,16.2788 5.6645,20.6374l-15.5801,-0.005l7.4982,-27.2628l0,0.0002zm91.1979,-14.6271l33.9571,-0.0467l0.2412,63.6103l-14.6001,0.1669l-19.5982,-63.7305zm-27.25,63.7458l-16.5489,-0.0187c9.5459,-3.5121 10.9082,-14.1862 10.9057,-26.1198c-0.002,-12.5379 -0.0354,-25.0815 0.006,-37.6189l25.2278,-0.0487c-0.8436,4.5122 -7.8284,26.0243 -9.7393,32.3396c-1.4385,4.7554 -8.5807,29.0469 -9.8512,31.4665l-0.0001,0zm-87.4967,-0.0127l-1.6237,-0.0227c-2.0044,-0.0281 -19.332,-38.0163 -19.0786,-38.4069l16.4359,-25.319l24.2263,-0.044l-9.7195,32.224c-1.3039,4.4042 -8.8064,30.2097 -10.2404,31.5686zm27.572,-63.7373l45.3932,-0.0527c0.0295,12.3942 0.001,24.7776 0.004,37.1585c0.002,5.6163 0.277,12.111 -2.9525,15.385c-2.884,2.9234 -7.5252,2.9852 -11.5399,-1.0136l-1.5162,-1.2606c-1.5129,2.1197 -4.4555,3.4824 -6.2799,5.6007c0.7243,2.5498 5.6052,7.5107 8.2318,7.7604l-11.685,0.1774l-19.6554,-63.7551l-0.0001,0zm-62.2383,30.3471l-0.0162,-30.3176l20.2587,-0.0896c-0.9562,2.3148 -18.6889,29.0049 -20.2425,30.4072zm44.2068,-41.8572c-4.8625,-0.5128 -3.4285,1.0032 -7.4848,1.1393l-26.8399,-0.0247c-11.2762,0.0003 -24.8102,0.6755 -35.8103,-0.0913l-0.0692,-7.6827c19.6064,-8.4838 21.4594,-10.0188 39.5334,-20.9719l18.6432,-11.7382c6.811,-3.3897 6.8008,2.8681 7.2813,5.7892c0.3152,1.9148 0.7254,4.5558 1.4922,6.1256c1.5327,3.1388 3.4982,1.5971 3.9809,3.7534c0.9471,4.2304 -2.2135,9.2886 -2.1792,11.6195c0.0306,2.0701 1.1012,3.1578 1.5145,5.1803c0.4366,2.137 0.0984,4.6959 -0.0621,6.9015zm-73.8439,-23.6834c-3.7417,-0.0565 -21.3772,13.1703 -20.3068,4.0878c0.7599,-6.4485 24.2733,-18.7489 28.7243,-21.0478l17.3803,-8.9107c3.3959,-1.1194 6.3732,-2.0642 9.8119,-3.3792c5.4051,-2.067 5.0116,-3.5334 9.4079,-0.1726c0.3501,8.6349 -5.7379,12.6833 -9.2458,17.0591c-6.8697,8.5695 -22.4912,14.2759 -32.7722,19.8505c-1.2248,0.6642 -7.5328,5.6778 -7.8483,1.0837c-0.1768,-2.5778 3.8733,-6.0696 4.8487,-8.5708zm113.7246,-134.0995c-0.7138,-2.8015 -5.4882,-7.408 -7.3973,-9.5794c-7.5646,-8.6031 -13.3291,-26.7012 -10.6892,-39.8503c3.2457,-16.1674 25.973,-25.1382 42.1815,-26.5685c10.2889,-0.908 22.3268,0.0907 28.247,5.6704c5.2163,4.9161 9.7013,13.653 10.9715,23.4093c1.4218,10.9199 -0.201,5.1058 7.2071,10.018c3.1736,2.1044 6.347,6.3062 8.297,8.8795c3.2363,4.2704 11.4865,15.3507 11.8664,22.492c-1.929,-0.3336 -14.1429,-7.3663 -16.8565,-8.8852c-3.2332,-1.8093 -14.1534,-7.8139 -17.5374,-8.1547c-1.6047,1.3332 -4.8521,5.8201 -6.226,7.814c-3.3466,4.8558 -1.8848,4.4782 0.8042,9.1128c1.8326,3.159 3.3536,5.1299 5.3231,8.3319c1.4383,2.3383 4.2427,6.3114 5.0673,8.3826c-5.0157,-2.8896 -9.8924,-7.2499 -15.3973,-10.1863l-17.1419,-9.0963c1.2971,3.2723 5.6769,5.9896 7.8074,9.8795c5.8499,10.6827 12.1213,25.6748 13.1236,38.3284c2.8083,35.4501 -21.3582,76.1794 -60.6314,76.0714c-9.7038,-0.0266 -22.1502,-1.1151 -30.1901,-4.4166c-6.4485,-2.6479 -16.4591,-10.1228 -19.0137,-14.9936l17.5522,-13.4428c15.408,-13.0303 33.6444,-39.8205 25.2567,-62.1068c-1.09,0.9329 -0.8793,-0.2063 -1.6064,3.9408c-2.3312,13.295 -7.6247,28.8986 -16.2865,38.7255c-3.1946,3.6244 -4.9158,6.5426 -9.0643,10.6611c-5.2002,5.1624 -14.7663,12.9506 -22.9981,16.971c-6.0219,2.941 -21.352,10.7399 -28.5976,11.3771c0.0865,-21.6796 4.6412,-29.1344 12.5459,-45.1539c2.421,-4.9068 12.9872,-23.313 16.2791,-27.2021c3.9427,-4.6582 9.3778,-12.202 12.8738,-15.9508c6.7223,-7.2082 13.2786,-16.2873 20.9727,-22.0215c11.241,-8.3781 11.3357,-10.9486 17.8821,-5.188c3.8823,3.4163 10.921,10.2342 15.3751,12.7315zm-110.0753,-123.5611l210.6082,0.0006l-0.0881,282.4557l-102.8271,0.003c-3.2935,0 -14.758,0.4408 -17.1328,-0.1032c-2.3296,-0.5335 -2.166,-2.5481 -6.0801,-2.3162c-2.3743,0.1409 -3.5283,1.1035 -6.3337,1.0865c-0.2214,-2.4582 0.0621,-4.1485 -0.4487,-6.6988c-2.4571,-12.2732 0.9796,-6.8219 1.0301,-16.9271c6.1526,-0.01 4.1218,-1.8547 8.7491,-9.8983c6.0126,0.1641 11.0925,1.1254 17.6873,0.8116c8.2894,-0.3946 17.1216,4.9705 23.2144,4.6352c4.117,-0.2268 2.2841,-2.4863 6.9769,-1.9239c1.9837,0.2378 6.6359,0.5457 8.1317,1.1038l6.1028,2.8857c-2.448,1.4162 -7.4288,2.7757 -4.9065,7.4432c3.5433,-0.307 0.756,-2.1858 4.659,-3.1153c18.0448,-4.2976 12.8985,1.1917 18.0343,2.2445c1.4207,-3.7355 -2.2133,-5.063 -4.0048,-6.5109c2.84,0.0383 5.4536,1.7323 6.9148,2.0546c1.1183,0.2469 0.2257,0.0691 0.9683,0.0581l0.6067,-0.1514c-3.9368,-5.7059 -10.3768,-3.6805 -17.2673,-6.4432c-6.6316,-2.6591 -8.7386,-4.9762 -16.9625,-6.4051l-1.2869,-5.0378c9.2593,-2.7065 16.7856,-12.109 22.1933,-17.7528c20.5021,-21.3964 18.3191,-59.3852 3.058,-83.4981c-1.3179,-2.0824 -3.435,-3.3033 -3.7721,-5.6674c4.7449,0.6007 11.8463,6.6504 19.0814,7.9073c-0.6834,-3.6989 -5.4584,-13.6242 -7.2501,-17.3645c-4.7793,-9.9774 -7.7664,-10.1988 -2.2788,-16.0007c3.7315,0.6588 33.4548,17.244 36.2945,14.1282c3.0098,-3.3021 -3.0265,-19.6697 -5.8303,-24.8023c-4.3291,-7.9263 -8.3922,-11.9146 -15.5582,-16.2576c-2.4665,-25.1441 -16.3698,-40.5139 -38.7043,-43.2473c-8.354,-1.0225 -17.026,-0.565 -24.9211,1.3634c-20.2827,4.9544 -39.5932,21.4563 -38.7629,43.0946c0.3308,8.6213 6.3068,17.4455 6.577,20.2235c-6.6782,3.9795 -10.8063,6.5715 -16.5739,10.7594c-14.1687,10.2881 -25.9566,18.3048 -36.43,31.8498c-2.0143,2.6048 -3.6902,4.7773 -5.7759,7.371c-14.1744,17.6292 -28.4137,45.2106 -25.6527,69.8884c0.4402,3.9345 2.304,7.9113 2.5395,10.6988l-4.4781,2.293l-0.1052,-230.4632l0.005,-3.7744l-0.0002,-0.0004zm-8.6717,239.0324c-7.0929,3.7562 -33.4916,19.7498 -23.6438,29.6354c4.0754,4.0909 9.701,2.4225 15.5826,2.1821c2.34,3.0132 3.1978,4.0626 8.0433,4.9847c0.2863,6.353 -0.4751,11.821 -0.4719,18.2197l0.001,54.6171c0.003,18.3013 -2.6416,16.0755 20.2464,16.0747l182.5923,-0.0003c26.1678,-0.0008 24.5379,2.2193 24.5373,-12.0288l-0.0006,-54.6171c-0.003,-6.4724 1.023,-10.5667 1.023,-17.1941l0.0003,-273.5915c-0.002,-4.8912 1.4157,-13.2577 -2.6362,-15.3482c-2.4313,-1.2543 -30.378,-0.5896 -35.5688,-0.5888l-182.6173,-0.0121c-8.2352,-0.0202 -7.0421,3.6524 -7.0373,10.8921l-0.0002,163.8513c-0.0009,23.9539 0.7503,49.1213 -0.0502,72.9238l0.0001,0z" id="path4"/>
  <path fill="#000000" fill-rule="evenodd" d="m196.307,94.0334c-6.5276,3.0373 -2.1084,13.4192 5.5432,9.7739c5.7713,-2.7496 2.3527,-13.4479 -5.5432,-9.7739z" id="path6"/>
 </g>
</svg>